#tb 0: 1/25
0,          0,          0,        1,  6220800, 0x408daf70
0,          1,          1,        1,  6220800, 0x59b254a3
0,          2,          2,        1,  6220800, 0x4cf4279c
0,          3,          3,        1,  6220800, 0x5c9437ae
0,          4,          4,        1,  6220800, 0x986c3eb8
0,          5,          5,        1,  6220800, 0x23fd883e
0,          6,          6,        1,  6220800, 0x84f222fe
0,          7,          7,        1,  6220800, 0xe7f91107
0,          8,          8,        1,  6220800, 0xb544b31e
0,          9,          9,        1,  6220800, 0x1ebdde56
